<svg width="179" height="24" viewBox="0 0 179 24" fill="none" xmlns="http://www.w3.org/2000/svg">
<path d="M5.48029 7.15442C4.72707 6.23227 4.07528 5.48918 3.5249 4.92516C3.0308 4.40237 2.46919 3.94908 1.85521 3.57748C1.28373 3.24665 0.653385 3.03233 0 2.9467L0 2.35897H8.28907V3.05152H4.28182C5.72023 3.46456 7.48948 4.9732 9.58957 7.57744L19.6263 20.1182V23.989H19.0437L5.48029 7.15442ZM0 22.8417C1.09643 22.7031 1.85521 22.544 2.2782 22.3587C2.47458 22.28 2.65144 22.1587 2.79633 22.0034C2.94121 21.8482 3.05059 21.6628 3.11675 21.4603C3.25404 21.0448 3.33381 20.3422 3.35607 19.3527L3.49336 11.1619H4.38386L4.52114 19.3527C4.54341 20.3422 4.64606 21.0448 4.82911 21.4603C5.01463 21.874 5.38567 22.1734 5.94223 22.3587C6.4988 22.544 7.48948 22.7031 8.91057 22.8417V23.4294H0V22.8417ZM18.5985 6.42818C18.575 5.43864 18.4723 4.73611 18.2905 4.32057C18.1087 3.90504 17.7377 3.60556 17.1774 3.42213C16.6171 3.23745 15.6277 3.07585 14.209 2.93734V2.34961H23.114V2.9467C22.017 3.08521 21.2576 3.24681 20.8358 3.43149C20.639 3.50949 20.4617 3.63051 20.3167 3.78585C20.1717 3.94119 20.0627 4.127 19.9973 4.32993C19.86 4.74422 19.7802 5.44675 19.758 6.43754L19.6207 14.6265H18.7376L18.5985 6.42818Z" fill="black"/>
<path d="M24.1475 23.4291V22.8413H29.5276C27.7664 22.306 26.8864 20.8529 26.8876 18.482V12.337C26.8876 11.2308 26.8227 10.4484 26.7021 9.98606C26.6639 9.7884 26.5783 9.60317 26.4529 9.44656C26.3274 9.28994 26.1658 9.16671 25.9823 9.08761C25.6285 8.9516 25.0182 8.85988 24.1512 8.81246V8.22473H29.8021V19.3168C29.8021 20.3999 29.8535 21.1717 29.9561 21.6322C30.0588 22.0926 30.2697 22.3977 30.5887 22.5475C30.9097 22.6991 31.457 22.7964 32.2343 22.8413V23.4291H24.1475ZM26.8524 3.38623C26.6644 3.20277 26.5157 2.98238 26.4155 2.73867C26.3154 2.49496 26.2658 2.23311 26.2698 1.9693C26.2683 1.71112 26.3192 1.45536 26.4194 1.21779C26.5195 0.98021 26.6669 0.765855 26.8524 0.587942C27.0343 0.398497 27.2528 0.248625 27.4943 0.147548C27.7358 0.0464724 27.9953 -0.00366918 28.2567 0.000208954C28.6011 0.000333193 28.9387 0.0961835 29.2326 0.277232C29.535 0.453744 29.7898 0.702484 29.9747 1.0016C30.1543 1.29182 30.2494 1.62715 30.2492 1.9693C30.2529 2.3231 30.1577 2.67077 29.9747 2.97257C29.7904 3.27213 29.5354 3.52098 29.2326 3.69694C28.9387 3.87799 28.6011 3.97384 28.2567 3.97396C27.9952 3.97828 27.7356 3.92834 27.4941 3.82724C27.2525 3.72614 27.0341 3.57603 26.8524 3.38623Z" fill="black"/>
<path d="M40.5176 23.9835C39.2127 23.8688 37.9606 23.4099 36.887 22.6526C35.8364 21.9036 34.998 20.8906 34.4548 19.714C33.8789 18.4772 33.5865 17.1254 33.5996 15.7589C33.5825 14.4056 33.8818 13.0673 34.4734 11.8526C35.0397 10.6953 35.8952 9.70692 36.9556 8.98504C38.0684 8.23364 39.3536 7.78255 40.6883 7.6748V8.29623C39.433 8.59571 38.4744 9.40681 37.8127 10.7295C37.1511 12.0522 36.8196 13.7287 36.8184 15.7589C36.8184 17.8091 37.1381 19.5081 37.7775 20.8558C38.4169 22.2034 39.3303 23.0145 40.5176 23.289V23.9835ZM41.8886 23.2909C42.6738 23.2257 43.4344 22.9839 44.1149 22.5834C44.7789 22.1963 45.3493 21.665 45.7846 21.028C46.2191 20.3942 46.5006 19.6667 46.6064 18.9035H47.3077C47.2019 19.7765 46.9033 20.6144 46.4339 21.3555C45.9605 22.0993 45.3182 22.7185 44.5601 23.1618C43.7416 23.6346 42.8291 23.9178 41.8886 23.991V23.2909ZM44.0796 12.9756C43.753 12.5993 43.5817 12.111 43.601 11.6111C43.6084 11.0809 43.7689 10.5644 44.0629 10.1249C44.3872 9.62545 44.8135 9.20169 45.3134 8.88209C45.8213 9.21093 46.258 9.64006 46.5972 10.1437C46.8925 10.5755 47.0533 11.0865 47.0591 11.6111C47.0779 12.1139 46.9 12.604 46.5638 12.9756C46.4054 13.15 46.2118 13.2881 45.9962 13.3807C45.7805 13.4734 45.5477 13.5184 45.3134 13.5128C45.0813 13.5198 44.8505 13.4754 44.6373 13.3825C44.4242 13.2897 44.2338 13.1508 44.0796 12.9756Z" fill="black"/>
<path d="M56.4447 23.9835C55.053 23.8769 53.7102 23.4193 52.5395 22.6526C51.4351 21.9176 50.5399 20.9048 49.9422 19.714C49.3213 18.4904 49.0031 17.1335 49.0146 15.7589C48.9979 14.4018 49.3092 13.061 49.9217 11.8526C50.5224 10.6828 51.4183 9.69369 52.519 8.98504C53.7003 8.23081 55.047 7.78088 56.441 7.6748V8.32992C55.0941 8.6294 54.0552 9.43613 53.3242 10.7501C52.5932 12.0641 52.2278 13.7343 52.2278 15.7608C52.2278 17.811 52.5932 19.51 53.3242 20.8576C54.0552 22.2053 55.0941 23.0164 56.441 23.2909L56.4447 23.9835ZM57.8138 23.2909C58.6788 23.1089 59.4645 22.6556 60.0586 21.9957C60.7267 21.2421 61.2181 20.3464 61.4964 19.3752C61.8415 18.2038 62.0091 16.9865 61.9936 15.7646C61.9936 13.7381 61.6337 12.0678 60.9139 10.7539C60.194 9.43988 59.1607 8.63315 57.8138 8.33367V7.67855C59.2029 7.78262 60.5448 8.23281 61.719 8.98878C62.8144 9.70044 63.706 10.6891 64.3052 11.8563C64.9177 13.0647 65.2291 14.4055 65.2124 15.7627C65.2238 17.1372 64.9056 18.4941 64.2848 19.7177C63.686 20.9078 62.791 21.9204 61.6875 22.6564C60.5272 23.4191 59.1961 23.8766 57.8157 23.9872L57.8138 23.2909Z" fill="black"/>
<path d="M66.2402 23.4292V22.8415H71.6203C69.8604 22.3062 68.9804 20.8531 68.9804 18.4822V5.42476C68.9804 4.32042 68.9185 3.5374 68.7949 3.0757C68.757 2.87817 68.6718 2.693 68.5466 2.53638C68.4215 2.37976 68.2602 2.25646 68.0769 2.17725C67.7219 2.03874 67.1109 1.9464 66.2439 1.90023V1.3125H71.8949V19.317C71.8949 20.4226 71.9524 21.2 72.0674 21.6492C72.1044 21.8471 72.1892 22.0327 72.3145 22.1895C72.4398 22.3462 72.6016 22.4693 72.7854 22.5476C73.1565 22.6986 73.7749 22.7966 74.6406 22.8415V23.4292H66.2402Z" fill="black"/>
<path d="M82.4065 23.9834C81.1274 23.8705 79.9024 23.4106 78.8612 22.6526C77.837 21.8934 77.0231 20.8815 76.4977 19.7139C75.9323 18.4741 75.646 17.1235 75.6592 15.7589C75.6421 14.4074 75.9354 13.0704 76.5163 11.8525C77.0641 10.7044 77.8944 9.71715 78.928 8.98496C80.0088 8.23284 81.2667 7.78096 82.5754 7.67472V8.3654C81.388 8.66488 80.4747 9.46538 79.8352 10.7669C79.1958 12.0684 78.8767 13.733 78.8779 15.7607C78.8779 17.8109 79.1871 19.5099 79.8055 20.8575C80.4239 22.2052 81.2897 23.0163 82.4028 23.2908L82.4065 23.9834ZM80.2489 15.5605V14.8698H86.9629C86.9629 12.887 86.7112 11.349 86.2079 10.2559C85.7045 9.16277 84.9513 8.53199 83.9482 8.36353V7.67285C85.1228 7.73589 86.2562 8.13089 87.219 8.81275C88.1654 9.50899 88.9056 10.4525 89.3599 11.5418C89.8841 12.811 90.1406 14.1764 90.1131 15.5511L80.2489 15.5605ZM83.7738 23.3002C85.3495 23.1854 86.6049 22.7306 87.5399 21.9357C88.4678 21.15 89.1262 20.0888 89.4211 18.9034H90.1057C89.809 20.2767 89.0754 21.5145 88.0167 22.4279C86.9666 23.3264 85.5511 23.8449 83.7701 23.9834L83.7738 23.3002Z" fill="black"/>
<path d="M99.8733 23.4294V22.7387H105.932C105.02 22.4617 104.352 21.9719 103.929 21.2694C103.506 20.5668 103.295 19.5823 103.296 18.3157V7.15442C103.296 5.86291 103.228 4.95822 103.09 4.44037C103.042 4.20828 102.938 3.99141 102.789 3.80802C102.64 3.62463 102.449 3.48009 102.233 3.38657C101.799 3.20313 101.011 3.05339 99.8696 2.93734V2.34961H103.094C103.937 2.34961 104.582 2.50559 105.029 2.81755C105.475 3.12951 105.795 3.64736 105.988 4.37111C106.181 5.09736 106.278 6.1287 106.279 7.46514V18.6265C106.279 19.893 106.341 20.774 106.465 21.2694C106.512 21.495 106.611 21.7063 106.754 21.8864C106.896 22.0665 107.079 22.2103 107.287 22.3063C107.71 22.5022 108.458 22.6464 109.532 22.7387V23.4294H99.8733ZM110.903 22.7387C112.181 22.6925 113.163 22.4561 113.849 22.0293C114.489 21.6568 114.98 21.0702 115.236 20.3709C115.496 19.5506 115.617 18.6919 115.594 17.831C115.594 16.1501 114.927 14.941 113.591 14.2035C112.255 13.466 110.389 13.0973 107.992 13.0973H107.649V12.3055H107.992C110.229 12.3055 111.899 11.8968 113.001 11.0795C114.103 10.2622 114.659 9.08171 114.67 7.53813C114.67 6.54735 114.485 5.73625 114.114 5.10484C113.743 4.47344 113.137 3.9899 112.298 3.65423C111.453 3.31856 110.311 3.15135 108.873 3.1526H106.997C106.809 2.82249 106.537 2.54817 106.211 2.3571H108.882C111.898 2.3571 114.147 2.80632 115.63 3.70477C117.113 4.60321 117.855 5.88225 117.856 7.54188C117.856 8.85461 117.411 9.92588 116.52 10.7557C115.63 11.5855 114.282 12.2094 112.478 12.6275C113.595 12.7393 114.688 13.0306 115.715 13.4903C116.598 13.8772 117.37 14.4838 117.958 15.2535C118.51 16.0008 118.799 16.9124 118.78 17.8441C118.802 18.8998 118.49 19.9352 117.889 20.7996C117.296 21.6406 116.411 22.2914 115.236 22.7518C114.061 23.2123 112.617 23.4425 110.903 23.4425V22.7387Z" fill="black"/>
<path d="M119.978 23.4292V22.8415H125.358C123.598 22.3062 122.718 20.8531 122.718 18.4822V5.42476C122.718 4.32042 122.657 3.5374 122.533 3.0757C122.495 2.87804 122.409 2.69281 122.284 2.5362C122.158 2.37958 121.997 2.25635 121.813 2.17725C121.458 2.03874 120.847 1.9464 119.98 1.90023V1.3125H125.633V19.317C125.633 20.4226 125.69 21.2 125.804 21.6492C125.841 21.8473 125.926 22.0332 126.051 22.19C126.177 22.3468 126.339 22.4697 126.523 22.5476C126.894 22.6993 127.505 22.7966 128.379 22.8415V23.4292H119.978Z" fill="black"/>
<path d="M136.144 23.9835C134.866 23.8709 133.641 23.411 132.601 22.6526C131.575 21.8945 130.761 20.8824 130.236 19.714C129.669 18.4746 129.382 17.1238 129.395 15.7589C129.378 14.4075 129.672 13.0705 130.252 11.8526C130.8 10.7042 131.63 9.7168 132.664 8.98504C133.745 8.23236 135.003 7.78043 136.311 7.6748V8.36549C135.124 8.66497 134.211 9.46546 133.571 10.767C132.932 12.0685 132.612 13.7331 132.612 15.7608C132.612 17.811 132.921 19.51 133.54 20.8576C134.158 22.2053 135.024 23.0164 136.137 23.2909L136.144 23.9835ZM133.987 15.5605V14.8699H140.701C140.701 12.887 140.45 11.3491 139.948 10.256C139.446 9.16286 138.692 8.53519 137.686 8.37297V7.68229C138.861 7.74533 139.994 8.14033 140.957 8.8222C141.904 9.51788 142.644 10.4616 143.098 11.5512C143.623 12.8201 143.879 14.1858 143.851 15.5605H133.987ZM137.512 23.3003C139.087 23.1855 140.343 22.7306 141.28 21.9358C142.207 21.1534 142.866 20.0955 143.163 18.9129H143.847C143.551 20.2864 142.818 21.5243 141.758 22.4374C140.708 23.3358 139.293 23.8543 137.512 23.9928V23.3003Z" fill="black"/>
<path d="M148.218 22.9105C147.59 22.1979 147.276 21.1036 147.276 19.6274V12.3275C147.276 11.2219 147.214 10.4383 147.09 9.97658C147.052 9.77892 146.967 9.59369 146.841 9.43708C146.716 9.28047 146.554 9.15723 146.371 9.07813C146.016 8.94212 145.405 8.8504 144.538 8.80298V8.22461H150.19V19.283C150.166 19.9149 150.241 20.5466 150.413 21.1547C150.521 21.5405 150.764 21.8733 151.098 22.0906C151.471 22.2915 151.89 22.3872 152.313 22.3676C152.964 22.3441 153.605 22.1915 154.198 21.9184C154.751 21.7074 155.27 21.4161 155.739 21.0537L156.11 21.6152C155.424 22.3239 154.617 22.9032 153.728 23.326C152.894 23.7531 151.975 23.9835 151.04 23.9998C149.786 23.9886 148.845 23.6255 148.218 22.9105ZM157.244 12.3369C157.244 11.2313 157.182 10.4476 157.058 9.98594C157.021 9.78841 156.935 9.60324 156.81 9.44662C156.685 9.29 156.524 9.1667 156.34 9.08749C155.986 8.95085 155.374 8.85914 154.507 8.81234V8.22461H160.158V19.1089C160.158 20.2145 160.215 20.9925 160.329 21.443C160.365 21.639 160.448 21.8231 160.571 21.9796C160.693 22.1361 160.852 22.2603 161.032 22.3414C161.387 22.4912 162.009 22.5891 162.899 22.6353V23.2212L157.248 23.983L157.244 12.3369Z" fill="black"/>
<path d="M171.013 23.9834C169.734 23.8711 168.509 23.4112 167.468 22.6526C166.446 21.893 165.636 20.881 165.114 19.7139C164.547 18.4744 164.261 17.1236 164.275 15.7589C164.252 14.4089 164.539 13.0719 165.114 11.8525C165.672 10.68 166.526 9.6764 167.59 8.94267C168.654 8.20895 169.891 7.77099 171.177 7.67285V8.36353C169.989 8.66301 169.076 9.4635 168.436 10.765C167.797 12.0665 167.477 13.7311 167.477 15.7589C167.477 17.8091 167.786 19.508 168.405 20.8557C169.023 22.2033 169.889 23.0144 171.002 23.289L171.013 23.9834ZM168.856 15.5605V14.8698H175.568C175.568 12.887 175.317 11.349 174.815 10.2559C174.312 9.16277 173.559 8.53199 172.553 8.36353V7.67285C173.728 7.73589 174.861 8.13089 175.824 8.81275C176.771 9.50844 177.511 10.4522 177.965 11.5418C178.491 12.8106 178.748 14.1762 178.72 15.5511L168.856 15.5605ZM172.381 23.3002C173.956 23.1854 175.212 22.7306 176.149 21.9357C177.076 21.1534 177.735 20.0954 178.032 18.9128H178.718C178.421 20.2862 177.686 21.5239 176.627 22.4373C175.577 23.3358 174.162 23.8542 172.381 23.9927V23.3002Z" fill="black"/>
</svg>
